<?xml version="1.0" encoding="UTF-8"?>
<svg version="1.1" xmlns="http://www.w3.org/2000/svg" width="3456" height="974">
<path d="M0 0 C1140.48 0 2280.96 0 3456 0 C3456 321.42 3456 642.84 3456 974 C2315.52 974 1175.04 974 0 974 C0 652.58 0 331.16 0 0 Z " fill="#EFEFEF" transform="translate(0,0)"/>
<path d="M0 0 C2.97 0 5.94 0 9 0 C9.00331015 0.64660489 9.00662029 1.29320978 9.01003075 1.95940876 C9.09120321 17.68290206 9.18327661 33.40628784 9.28752708 49.12964344 C9.33767787 56.73329971 9.38412045 64.33694507 9.421875 71.94067383 C9.45478602 78.56703556 9.49461222 85.19331319 9.54279006 91.81958216 C9.568064 95.32909235 9.58984255 98.83854669 9.60334396 102.34812355 C9.61853473 106.26318961 9.64916221 110.1780509 9.68115234 114.09301758 C9.68331253 115.2604248 9.68547272 116.42783203 9.68769836 117.63061523 C9.70444359 119.22707634 9.70444359 119.22707634 9.7215271 120.85578918 C9.72705786 121.78219113 9.73258862 122.70859308 9.73828697 123.66306782 C9.84947947 126.27109188 9.84947947 126.27109188 12 129 C12 129.99 12 130.98 12 132 C12.66 132 13.32 132 14 132 C14.20625 132.721875 14.4125 133.44375 14.625 134.1875 C16.87575632 138.79131975 20.81688749 141.21125833 25 144 C27.58804359 144.29836517 27.58804359 144.29836517 30.55483252 144.24445301 C31.72008008 144.24807499 32.88532764 144.25169697 34.08588573 144.2554287 C35.37466602 144.24920639 36.66344632 144.24298408 37.99128056 144.23657322 C39.37314803 144.23702954 40.75501544 144.23836773 42.13688132 144.24051169 C45.95981259 144.24388398 49.78262971 144.23471468 53.60554275 144.22365934 C57.75497868 144.21387802 61.90441116 144.21574305 66.05385631 144.2162208 C73.33495946 144.21548346 80.61602604 144.2074214 87.89711761 144.19466209 C98.72445509 144.17578051 109.55177814 144.16845787 120.37913007 144.16395297 C137.4745724 144.15670192 154.57000145 144.14295766 171.66543566 144.12505588 C198.80372265 144.09684656 225.94198284 144.09041023 253.08028294 144.09153391 C258.85242767 144.09174441 264.6245724 144.09175068 270.39671713 144.09177262 C272.72380693 144.09178537 275.05089673 144.09179865 277.37798653 144.09181244 C278.53345737 144.09181868 279.68892821 144.09182491 280.87941332 144.09183133 C284.39340707 144.091857 287.90740082 144.09190313 291.42139458 144.09195067 C317.86304286 144.09222284 344.3046902 144.08933943 370.74633789 144.08374023 C371.95500422 144.08349247 373.16367055 144.08324471 374.40896314 144.08298944 C413.60550926 144.07477618 452.80199718 144.04242854 491.99851923 143.99967251 C532.27915782 143.95590343 572.55970878 143.94201509 612.84036744 143.96368521 C618.52711736 143.96671795 624.21386739 143.9693796 629.9006176 143.97179985 C631.01985576 143.97228319 632.13909392 143.97276654 633.29224838 143.97326453 C651.32057721 143.9801116 669.3487264 143.95490055 687.37701167 143.91739145 C705.49176191 143.88030024 723.60628838 143.87540791 741.72105671 143.90368379 C752.48822213 143.91947442 763.25468461 143.91001438 774.02176992 143.86471044 C781.21151516 143.83691437 788.40076061 143.84166404 795.5904902 143.87298156 C799.68907885 143.88989337 803.78631013 143.89252429 807.88479633 143.85545409 C811.61585421 143.8219814 815.34444841 143.83013144 819.07541056 143.87108347 C821.0448566 143.88207568 823.01439934 143.84901439 824.98356518 143.81402221 C833.10864953 143.95928938 837.17294897 145.77538514 842.84866887 151.62746909 C843.55860814 152.41040429 844.26854742 153.19333949 845 154 C846.53504302 155.51858711 848.07548378 157.03175687 849.62361145 158.53700256 C851.22157881 160.14707794 852.81672865 161.75995331 854.40942383 163.37524414 C855.29042755 164.2641333 856.17143127 165.15302246 857.07913208 166.06884766 C858.97289763 167.97968299 860.86574631 169.89138223 862.75730324 171.80439949 C865.74989747 174.82996295 868.74874734 177.84927477 871.74894714 180.86729431 C872.78088552 181.90549106 873.81282311 182.94368858 874.84475994 183.98188686 C875.36084895 184.50109199 875.87693795 185.02029712 876.40866601 185.55523574 C883.37791553 192.56735355 890.34233243 199.58417739 897.29272461 206.61499023 C902.00394244 211.38062192 906.72394429 216.13735779 911.45426196 220.8840341 C913.95102457 223.39016766 916.44299127 225.90069064 918.92417336 228.42225838 C921.68187783 231.22474237 924.45875631 234.00772285 927.23754883 236.78930664 C928.05477921 237.62608444 928.87200958 238.46286224 929.71400452 239.32499695 C930.47211426 240.07767853 931.230224 240.83036011 932.01130676 241.60585022 C932.6647749 242.26522614 933.31824305 242.92460207 933.99151325 243.60395908 C936.50456645 245.35070952 938.00053641 245.35610989 941 245 C941.33 244.67 941.66 244.34 942 244 C942 211.33 942 178.66 942 145 C1105.02 145 1268.04 145 1436 145 C1436 147.64 1436 150.28 1436 153 C1434.46754956 153.00260437 1434.46754956 153.00260437 1432.90414053 153.00526136 C1387.90247334 153.08180638 1342.90080844 153.15958055 1297.89915466 153.2436676 C1297.21838949 153.24493928 1296.53762431 153.24621096 1295.83622989 153.24752118 C1281.04316243 153.27516229 1266.25009539 153.30302526 1251.45702878 153.33111694 C1244.20304205 153.34489074 1236.94905523 153.35861548 1229.69506836 153.37231445 C1228.9731901 153.37367854 1228.25131184 153.37504262 1227.50755848 153.37644804 C1204.08817864 153.42067902 1180.66879449 153.46166775 1157.24940594 153.50098413 C1133.19305629 153.54138689 1109.13671469 153.58504264 1085.0803785 153.63282111 C1081.68651458 153.63956016 1078.29265059 153.64626183 1074.89878654 153.65294075 C1073.89679516 153.65491434 1073.89679516 153.65491434 1072.87456152 153.6569278 C1062.09985641 153.6780541 1051.32514825 153.69572731 1040.55043503 153.71212531 C1029.73144563 153.7286638 1018.91246812 153.74888288 1008.09349222 153.77266841 C1002.22617184 153.78545845 996.35886007 153.79658669 990.49152946 153.80341911 C985.12955314 153.80969822 979.76760644 153.82049818 974.40564632 153.8350333 C972.45678864 153.83949319 970.50792618 153.84223363 968.55906362 153.84316199 C965.92808677 153.84465619 963.29719744 153.85217804 960.66623783 153.8613348 C959.893966 153.86031213 959.12169416 153.85928946 958.32602015 153.85823581 C954.87296361 153.56475514 954.87296361 153.56475514 952 155 C951.89201408 156.54311044 951.85316742 158.0911124 951.84178162 159.63795471 C951.8319928 160.64061371 951.82220398 161.64327271 951.81211853 162.67631531 C951.80636307 163.78545792 951.8006076 164.89460052 951.79467773 166.03735352 C951.77982834 167.7785849 951.77982834 167.7785849 951.76467896 169.55499268 C951.73295305 173.41294273 951.70826284 177.27090513 951.68359375 181.12890625 C951.66303378 183.79549089 951.64208634 186.46206964 951.62062073 189.12864685 C951.57064367 195.4432553 951.52572351 201.7578893 951.48259836 208.07254785 C951.43326873 215.25988912 951.37833481 222.44718408 951.32291877 229.6344806 C951.20902181 244.42294316 951.10219965 259.21145186 951 274 C947.37333491 272.29759229 945.03055792 270.27513254 942.19140625 267.421875 C941.27939453 266.50792969 940.36738281 265.59398437 939.42773438 264.65234375 C938.95682373 264.17522949 938.48591309 263.69811523 938.00073242 263.20654297 C936.57579727 261.76346656 935.14313897 260.32843939 933.70898438 258.89453125 C926.08973029 251.22688388 926.08973029 251.22688388 923.08203125 247.54296875 C921.21783089 245.26605611 919.37936343 243.43801812 917.125 241.5625 C911.96379269 237.14690801 907.22742485 232.47555842 902.81640625 227.30859375 C898.91337898 222.82684352 894.73829407 218.66247486 890.5 214.5 C889.04954716 213.07549444 887.60160735 211.64842536 886.15625 210.21875 C885.20975586 209.2896582 885.20975586 209.2896582 884.24414062 208.34179688 C879.6257457 203.52242741 875.33064982 198.54400469 871.41593522 193.13295567 C858.11166124 174.8780948 841.90195343 154.85743984 818.55947158 150.59904341 C799.53196314 147.65800344 779.97417971 148.30753929 760.79040911 148.77229768 C751.03429406 148.99901542 741.28301751 148.96088385 731.52499523 148.91778157 C713.52714758 148.8453182 695.53629006 148.97466058 677.54024696 149.2238121 C659.74947475 149.46938136 641.96182397 149.62099499 624.1693325 149.65109634 C622.50181477 149.65398901 622.50181477 149.65398901 620.8006098 149.65694012 C615.15336626 149.66624394 609.50612177 149.67388272 603.85887494 149.68086721 C563.98473441 149.73302843 524.11423479 149.98692368 484.24194336 150.36328125 C445.55978425 150.72787747 406.87865749 151.00496989 368.19506836 151.16113281 C367.00068807 151.16599203 365.80630778 151.17085126 364.57573415 151.17585773 C350.19945615 151.23421098 335.82316627 151.28914891 321.44686987 151.34275246 C299.36984232 151.42526933 277.29284664 151.51544501 255.21586609 151.60964966 C253.52866618 151.61679519 253.52866618 151.61679519 251.80738143 151.62408508 C218.47950208 151.7655709 185.15248694 151.96861614 151.82530546 152.22591164 C146.56996607 152.266233 141.31461775 152.30535015 136.05927026 152.34459996 C131.9737067 152.37526053 127.888144 152.4060348 123.80258179 152.43687439 C122.31109817 152.4481201 122.31109817 152.4481201 120.78948357 152.459593 C109.17985139 152.54747986 97.57032446 152.64262824 85.9608507 152.7494521 C78.87744083 152.81424057 71.79399685 152.87213362 64.71048492 152.92458075 C59.90269755 152.96057373 55.09510039 153.00506737 50.28745616 153.05663521 C47.38395672 153.08561023 44.48044538 153.10597386 41.57685808 153.12380098 C39.63538652 153.13822142 37.69399925 153.16288394 35.75263634 153.18797994 C19.62893209 153.26210435 19.62893209 153.26210435 14.3125 148.6875 C13.1678125 147.3571875 13.1678125 147.3571875 12 146 C10.94788831 145.17409232 9.88501668 144.36173118 8.8125 143.5625 C5.73041475 140.75437788 5.0750303 138.94177777 4 135 C3.34 134.67 2.68 134.34 2 134 C-0.8282993 128.18061431 -0.26567389 121.88194073 -0.22705078 115.56884766 C-0.22734283 114.31951447 -0.22763489 113.07018127 -0.22793579 111.7829895 C-0.2267839 108.37013477 -0.21677611 104.9575241 -0.20278788 101.54471254 C-0.19025755 97.973287 -0.18910821 94.40185795 -0.18673706 90.83041382 C-0.18052905 84.0732159 -0.16412744 77.31608294 -0.14403808 70.55891359 C-0.12165793 62.86364586 -0.11068034 55.16837497 -0.10064721 47.47308278 C-0.07976059 31.64868427 -0.04459785 15.82435052 0 0 Z " fill="#434343" transform="translate(617,558)"/>
<path d="M0 0 C0.515625 0.268125 1.03125 0.53625 1.5625 0.8125 C2.366875 1.204375 3.17125 1.59625 4 2 C5.39104023 2.767594 5.39104023 2.767594 6.81018227 3.55069494 C12.43875438 5.92430132 18.47120932 5.40991088 24.47458363 5.37638092 C25.86012604 5.37939958 27.24566609 5.38373442 28.63120076 5.38926309 C32.44565825 5.40067083 36.25988766 5.39339427 40.07433999 5.3831337 C44.22140372 5.3752902 48.36843268 5.38486658 52.51549214 5.3922677 C59.78596753 5.40285148 67.05637668 5.40234277 74.32685471 5.39461708 C85.13790851 5.38319898 95.94890488 5.38898052 106.75995814 5.39844786 C124.94573981 5.41394549 143.13149908 5.41593283 161.31728554 5.41069031 C186.14345599 5.40371473 210.96958908 5.41632362 235.79575267 5.43419749 C247.35593409 5.44249414 258.91611611 5.44983057 270.47629833 5.45691681 C271.63357748 5.45762731 272.79085662 5.4583378 273.98320483 5.45906983 C301.53315363 5.47576054 329.08310368 5.48304698 356.63305664 5.48876953 C357.83864781 5.48902344 359.04423899 5.48927734 360.28636323 5.48953895 C379.85392487 5.49364717 399.4214866 5.49718517 418.98904836 5.50065124 C437.33229858 5.50390639 455.67554873 5.50736968 474.01879883 5.51123047 C475.2245092 5.51148076 476.43021956 5.51173104 477.67246661 5.51198892 C505.18420311 5.5177508 532.69593522 5.52619078 560.20766735 5.54308319 C561.36295928 5.54379146 562.51825121 5.54449972 563.70855198 5.54522945 C575.23989612 5.55236038 586.77123985 5.55996206 598.3025832 5.56826716 C623.10626467 5.58602696 647.9099105 5.59548985 672.71359808 5.58834486 C690.78733704 5.58326289 708.86104793 5.58835548 726.93478093 5.60420525 C737.6856395 5.61326961 748.43642251 5.61376291 759.18727924 5.60235891 C766.35580941 5.59555777 773.52428046 5.59946417 780.69280227 5.61229661 C784.78541554 5.61930034 788.87787862 5.62139276 792.97048656 5.61043197 C796.68634909 5.60056443 800.40193107 5.60423617 804.11777447 5.61916465 C806.09880412 5.62349701 808.0798488 5.61296398 810.06085286 5.60200018 C811.22175496 5.6094068 812.38265707 5.61681342 813.57873803 5.62444448 C814.58511865 5.62455317 815.59149927 5.62466185 816.62837626 5.62477383 C817.4110121 5.74859847 818.19364793 5.8724231 819 6 C819.66 6.99 820.32 7.98 821 9 C820.01 8.67 819.02 8.34 818 8 C816.14945319 7.90790798 814.29570295 7.87583312 812.44286615 7.87629348 C811.27710614 7.87415012 810.11134612 7.87200676 808.91026005 7.86979845 C807.62090807 7.8725362 806.33155608 7.87527396 805.00313282 7.87809467 C803.62066039 7.87746786 802.23818811 7.87639998 800.85571632 7.8749291 C797.03115271 7.87213549 793.20661569 7.87560138 789.38205453 7.88000277 C785.23083883 7.88366716 781.07962576 7.88150128 776.92840928 7.88002127 C769.64425848 7.87820538 762.36011562 7.88002365 755.07596588 7.88416862 C744.24418283 7.89027658 733.41240523 7.89058813 722.58062079 7.88942078 C708.80897519 7.88796966 695.03733021 7.88763355 681.26568472 7.89011252 C680.1711615 7.890308 679.07663827 7.89050349 677.94894767 7.8907049 C676.8498622 7.89090126 675.75077673 7.89109762 674.61838564 7.89129993 C646.35753843 7.89630862 618.09670714 7.88916129 589.83586284 7.87624787 C585.22251861 7.87414825 580.60917435 7.87211895 575.99583009 7.8700868 C567.82578062 7.8664853 559.65573117 7.86284187 551.48568175 7.85914052 C525.03838788 7.84716494 498.5910938 7.83613757 472.14379883 7.8269043 C470.93487098 7.82647689 469.72594313 7.82604949 468.4803811 7.82560914 C429.26987584 7.81187048 390.05939171 7.81506325 350.84888633 7.8259689 C310.55650533 7.83706513 270.26417284 7.82834393 229.97180258 7.79566183 C224.28441118 7.79106423 218.59701962 7.7867082 212.90962791 7.78250694 C211.79025491 7.78167483 210.67088191 7.78084272 209.51758851 7.77998539 C191.48147565 7.76719137 173.44543157 7.77560189 155.40932426 7.79207365 C137.29015553 7.80821275 119.17109652 7.80285552 101.05194054 7.77532528 C90.28006553 7.75963272 79.50849409 7.7607828 68.736635 7.78576013 C61.54628589 7.80079847 54.35616928 7.7942028 47.16584618 7.76984716 C43.06550131 7.75658562 38.96575437 7.75290614 34.86543731 7.77557514 C31.13533587 7.79601472 27.40634376 7.78888629 23.67630949 7.75973793 C21.70232834 7.75143189 19.72829037 7.77256516 17.75441787 7.79487947 C10.83024737 7.70872411 6.57467552 6.99362508 1.27095838 2.38375 C0 1 0 1 0 0 Z " fill="#ACACAC" transform="translate(634,696)"/>
<path d="M0 0 C163.02 0 326.04 0 494 0 C494 0.33 494 0.66 494 1 C331.31 1 168.62 1 1 1 C1.0813718 35.61378787 1.0813718 35.61378787 4 70 C4.29794597 74.8762499 4.33092664 79.73500511 4.31567383 84.61816406 C4.31244016 86.79019213 4.33635019 88.96094459 4.36132812 91.1328125 C4.36359496 92.52083163 4.36430749 93.90885439 4.36328125 95.296875 C4.36775269 97.15844238 4.36775269 97.15844238 4.37231445 99.05761719 C4.24945068 100.02860352 4.12658691 100.99958984 4 102 C0.69985205 104.20009864 -0.1718327 104.62319003 -4 104 C-6.2183436 102.49843252 -8.02692953 100.83541439 -10 99 C-9.505 98.01 -9.505 98.01 -9 97 C-8.608125 97.495 -8.21625 97.99 -7.8125 98.5 C-6.05177629 100.24302195 -6.05177629 100.24302195 -3.375 100.25 C-1.04703565 100.25676839 -1.04703565 100.25676839 0 99 C0 66.33 0 33.66 0 0 Z " fill="#656565" transform="translate(1559,703)"/>
<path d="M0 0 C0.33 0 0.66 0 1 0 C2.65691526 9.60953946 3.34606563 18.88828356 3.31567383 28.61816406 C3.31244016 30.79019213 3.33635019 32.96094459 3.36132812 35.1328125 C3.36359496 36.52083163 3.36430749 37.90885439 3.36328125 39.296875 C3.36775269 41.15844238 3.36775269 41.15844238 3.37231445 43.05761719 C3.24945068 44.02860352 3.12658691 44.99958984 3 46 C-0.22791555 48.1519437 -1.28400809 48.20086443 -5 48 C-5.33 47.34 -5.66 46.68 -6 46 C-5.195625 46.020625 -4.39125 46.04125 -3.5625 46.0625 C-1.06645115 46.29633621 -1.06645115 46.29633621 0 45 C0.0928726 43.58774954 0.11746772 42.17091066 0.11352539 40.75561523 C0.11344986 39.85475693 0.11337433 38.95389862 0.11329651 38.02574158 C0.10813522 37.04658279 0.10297394 36.06742401 0.09765625 35.05859375 C0.09553383 33.56248314 0.09553383 33.56248314 0.09336853 32.03614807 C0.08775114 28.83656876 0.07519571 25.63705831 0.0625 22.4375 C0.05748724 20.27408955 0.05292395 18.11067801 0.04882812 15.94726562 C0.03777607 10.63148675 0.02102104 5.31574829 0 0 Z " fill="#595959" transform="translate(1560,759)"/>
<path d="M0 0 C0.33 0 0.66 0 1 0 C1.14586659 6.12988845 1.28806678 12.25984864 1.42724609 18.38989258 C1.4748049 20.46380767 1.5232693 22.53770224 1.57275391 24.61157227 C1.74245309 31.74066956 1.88659909 38.86977888 2 46 C2.02658691 47.62745148 2.02658691 47.62745148 2.05371094 49.28778076 C2.1001608 52.49264334 2.13090496 55.69725172 2.15625 58.90234375 C2.1711145 59.88795792 2.185979 60.87357208 2.20129395 61.88905334 C2.20512085 62.7944133 2.20894775 63.69977325 2.21289062 64.63256836 C2.22018188 65.43013046 2.22747314 66.22769257 2.23498535 67.04942322 C2 69 2 69 0 71 C-6.17784711 70.66302652 -6.17784711 70.66302652 -8.9375 68.4375 C-9.288125 67.963125 -9.63875 67.48875 -10 67 C-9.505 66.01 -9.505 66.01 -9 65 C-8.608125 65.495 -8.21625 65.99 -7.8125 66.5 C-6.05177629 68.24302195 -6.05177629 68.24302195 -3.375 68.25 C-1.04703565 68.25676839 -1.04703565 68.25676839 0 67 C0.09417773 64.91380978 0.11742878 62.82439523 0.11352539 60.73608398 C0.11367142 60.08244873 0.11381744 59.42881348 0.1139679 58.75537109 C0.11326883 56.58557872 0.10547678 54.41587121 0.09765625 52.24609375 C0.09579205 50.74536689 0.09436816 49.24463943 0.09336853 47.74391174 C0.08954352 43.78681774 0.0797134 39.82976022 0.06866455 35.87268066 C0.05845006 31.83765151 0.05387083 27.80261647 0.04882812 23.76757812 C0.03809111 15.84503531 0.0210149 7.92252219 0 0 Z " fill="#A3A3A3" transform="translate(1559,735)"/>
<path d="M0 0 C0.33 0 0.66 0 1 0 C1.05786668 3.79160297 1.09355054 7.58309311 1.125 11.375 C1.14175781 12.45523438 1.15851563 13.53546875 1.17578125 14.6484375 C1.18222656 15.6796875 1.18867187 16.7109375 1.1953125 17.7734375 C1.20578613 18.72653809 1.21625977 19.67963867 1.22705078 20.66162109 C1 23 1 23 -1 25 C-7.17784711 24.66302652 -7.17784711 24.66302652 -9.9375 22.4375 C-10.288125 21.963125 -10.63875 21.48875 -11 21 C-10.67 20.34 -10.34 19.68 -10 19 C-9.608125 19.495 -9.21625 19.99 -8.8125 20.5 C-7.05177629 22.24302195 -7.05177629 22.24302195 -4.375 22.25 C-2.04703565 22.25676839 -2.04703565 22.25676839 -1 21 C-0.84313751 19.44051458 -0.74923361 17.87457332 -0.68359375 16.30859375 C-0.64169922 15.36435547 -0.59980469 14.42011719 -0.55664062 13.44726562 C-0.49766602 11.95743164 -0.49766602 11.95743164 -0.4375 10.4375 C-0.39431641 9.44041016 -0.35113281 8.44332031 -0.30664062 7.41601562 C-0.20019702 4.9441585 -0.09818072 2.4721969 0 0 Z " fill="#939393" transform="translate(1560,781)"/>
<path d="M0 0 C1.77297142 2.65945714 2.93068972 4.995958 4.125 7.9375 C4.47820313 8.79214844 4.83140625 9.64679687 5.1953125 10.52734375 C6 13 6 13 6 17 C6.66 17 7.32 17 8 17 C7.67 18.32 7.34 19.64 7 21 C6.54625 19.865625 6.0925 18.73125 5.625 17.5625 C4.42904194 13.95278308 4.42904194 13.95278308 2 13 C0.0977156 8.56133639 -0.19188324 4.79708091 0 0 Z " fill="#707070" transform="translate(617,679)"/>
</svg>
