<svg version="1.1" id="Layer_1" xmlns="http://www.w3.org/2000/svg" xmlns:xlink="http://www.w3.org/1999/xlink" x="0px" y="0px"
	 width="100%" viewBox="0 0 3456 974" enable-background="new 0 0 3456 974" xml:space="preserve">
<path fill="#F0F0F0" opacity="1.000000" stroke="none" 
	d="
M3442.000000,975.000000 
	C2294.666748,975.000000 1147.833374,975.000000 1.000000,975.000000 
	C1.000000,650.333313 1.000000,325.666656 1.000000,1.000000 
	C1153.000000,1.000000 2305.000000,1.000000 3457.000000,1.000000 
	C3457.000000,325.666656 3457.000000,650.333313 3457.000000,975.000000 
	C3452.166748,975.000000 3447.333252,975.000000 3442.000000,975.000000 
M1457.773560,707.516113 
	C1456.755249,706.773743 1455.736816,706.031311 1454.285522,704.964294 
	C1453.877808,704.609924 1453.470215,704.255554 1452.802124,703.177795 
	C1450.549927,702.892700 1448.297852,702.358276 1446.045654,702.357910 
	C1180.956177,702.315125 915.866638,702.310486 650.777100,702.338135 
	C649.183838,702.338257 647.590515,702.816406 645.370911,703.022949 
	C644.964966,702.922424 644.559021,702.821838 643.966736,702.079956 
	C639.301636,698.393860 634.636597,694.707703 629.705383,690.511475 
	C629.550842,690.160583 629.396301,689.809753 629.588501,688.794922 
	C628.807739,687.484192 628.026978,686.173523 627.094910,684.158508 
	C627.052979,683.439636 627.011047,682.720764 627.497375,681.372253 
	C627.544800,681.212524 627.633606,681.052856 627.633789,680.893005 
	C627.686768,641.403320 627.749207,601.913696 627.698242,562.424133 
	C627.696838,561.340820 626.473938,560.259094 624.947144,559.150146 
	C622.819275,559.150146 620.691406,559.150146 618.318298,559.150146 
	C618.182068,560.632874 617.987427,561.763367 617.987488,562.893860 
	C617.989746,602.216064 617.859558,641.539368 618.123474,680.859924 
	C618.198914,692.110291 624.113342,700.606689 633.234558,706.957703 
	C640.006531,711.672974 647.650330,712.300110 655.605103,712.296448 
	C788.401794,712.235413 921.198425,712.252991 1053.995117,712.252930 
	C1183.126099,712.252930 1312.257202,712.276794 1441.388062,712.156677 
	C1446.110718,712.152283 1449.403320,713.511780 1452.695923,716.892944 
	C1468.620605,733.245911 1484.797607,749.353333 1500.899292,765.533691 
	C1523.579834,788.325012 1546.272705,811.103943 1569.017944,834.277039 
	C1569.194702,834.270020 1569.371460,834.262939 1569.548218,834.255920 
	C1569.336060,834.151978 1569.124023,834.048035 1568.988770,833.014954 
	C1569.055664,831.852844 1569.180908,830.690674 1569.180908,829.528564 
	C1569.182739,792.874939 1569.180176,756.221313 1569.155884,719.567688 
	C1569.152100,713.697144 1570.501953,712.281799 1576.444092,712.255859 
	C1584.940796,712.218750 1593.437622,712.175476 1601.934326,712.175232 
	C1750.381836,712.170410 1898.829468,712.171753 2047.276978,712.171753 
	C2049.385742,712.171753 2051.494385,712.171753 2053.814453,712.171753 
	C2053.814453,709.108765 2053.814453,706.649780 2053.738281,703.412415 
	C2051.708008,703.049133 2049.677734,702.368469 2047.647339,702.367859 
	C1886.513428,702.318481 1725.379639,702.322327 1564.245728,702.322144 
	C1562.457153,702.322144 1560.668579,702.322083 1557.683960,702.322083 
	C1558.537598,705.442871 1559.174927,707.773132 1559.889038,711.024292 
	C1559.957031,717.681091 1560.025024,724.337952 1559.559937,731.622498 
	C1559.456299,733.272583 1559.242676,734.924133 1559.265625,736.572449 
	C1559.547852,756.863770 1559.754150,777.157349 1560.251465,797.443665 
	C1560.373169,802.407227 1558.626831,804.662231 1553.192017,803.937927 
	C1552.048462,802.705505 1550.905029,801.473083 1549.786987,799.544556 
	C1547.111450,797.107849 1544.435791,794.671143 1541.319458,791.879639 
	C1540.800781,791.332825 1540.282227,790.786011 1539.784790,789.541077 
	C1538.775513,788.773132 1537.766235,788.005188 1536.315430,786.883362 
	C1535.796753,786.336487 1535.278198,785.789673 1534.781860,784.543884 
	C1533.771362,783.777832 1532.760864,783.011780 1531.309204,781.890503 
	C1530.790161,781.343323 1530.271118,780.796204 1529.783569,779.550476 
	C1528.775757,778.778320 1527.767944,778.006104 1526.317505,776.881287 
	C1525.799316,776.333984 1525.281128,775.786682 1524.790649,774.543884 
	C1524.357666,773.848450 1524.038574,773.039185 1523.474854,772.474182 
	C1505.035889,753.990967 1486.583252,735.521057 1468.081909,717.100281 
	C1467.214722,716.237061 1465.879883,715.843506 1464.322266,714.876221 
	C1463.803589,714.329712 1463.285034,713.783203 1462.791260,712.539734 
	C1461.122314,711.114746 1459.453491,709.689819 1457.828247,708.170837 
	C1457.828247,708.170837 1457.734131,708.214233 1457.773560,707.516113 
z"/>
<path fill="#454545" opacity="1.000000" stroke="none" 
	d="
M1568.960327,833.888184 
	C1546.272705,811.103943 1523.579834,788.325012 1500.899292,765.533691 
	C1484.797607,749.353333 1468.620605,733.245911 1452.695923,716.892944 
	C1449.403320,713.511780 1446.110718,712.152283 1441.388062,712.156677 
	C1312.257202,712.276794 1183.126099,712.252930 1053.995117,712.252930 
	C921.198425,712.252991 788.401794,712.235413 655.605103,712.296448 
	C647.650330,712.300110 640.006531,711.672974 633.234558,706.957703 
	C624.113342,700.606689 618.198914,692.110291 618.123474,680.859924 
	C617.859558,641.539368 617.989746,602.216064 617.987488,562.893860 
	C617.987427,561.763367 618.182068,560.632874 618.318298,559.150146 
	C620.691406,559.150146 622.819275,559.150146 625.459900,559.615295 
	C626.035522,562.071045 626.152710,564.061646 626.153259,566.052246 
	C626.164185,602.609497 626.147644,639.166809 626.195374,675.723999 
	C626.198120,677.816956 626.699768,679.909302 626.969177,682.001892 
	C627.011047,682.720764 627.052979,683.439636 627.064026,684.837524 
	C627.769348,686.830627 628.505554,688.144714 629.241760,689.458862 
	C629.396301,689.809753 629.550842,690.160583 629.820618,691.120239 
	C633.047607,697.497803 637.654297,701.333191 644.153076,702.721252 
	C644.559021,702.821838 644.964966,702.922424 646.008911,703.304321 
	C649.296204,703.782959 651.945496,704.152588 654.594727,704.152832 
	C918.758484,704.177429 1182.922241,704.174683 1447.086060,704.161316 
	C1449.078247,704.161194 1451.070312,703.991699 1453.062500,703.901245 
	C1453.470215,704.255554 1453.877808,704.609924 1454.567261,705.438477 
	C1455.810669,706.679810 1456.772461,707.447021 1457.734131,708.214233 
	C1457.734131,708.214233 1457.828247,708.170837 1457.862671,708.542847 
	C1459.520142,710.355469 1461.143311,711.796082 1462.766357,713.236694 
	C1463.285034,713.783203 1463.803589,714.329712 1464.600952,715.386719 
	C1484.261475,735.381653 1503.640503,754.868835 1523.042969,774.332581 
	C1523.479858,774.770813 1524.183594,774.943054 1524.762939,775.239380 
	C1525.281128,775.786682 1525.799316,776.333984 1526.589355,777.376892 
	C1527.824951,778.664673 1528.788452,779.456848 1529.752075,780.249023 
	C1530.271118,780.796204 1530.790161,781.343323 1531.582764,782.386719 
	C1532.824219,783.669617 1533.791870,784.456177 1534.759521,785.242798 
	C1535.278198,785.789673 1535.796753,786.336487 1536.587891,787.379700 
	C1537.828247,788.663757 1538.795898,789.451416 1539.763672,790.239136 
	C1540.282227,790.786011 1540.800781,791.332825 1541.597656,792.389771 
	C1544.504395,795.346863 1547.132935,797.793762 1549.761475,800.240662 
	C1550.905029,801.473083 1552.048462,802.705505 1553.533813,804.490417 
	C1555.956421,805.539307 1558.228271,806.750122 1560.046143,806.263794 
	C1561.134521,805.972717 1562.141602,803.017090 1562.114624,801.275757 
	C1561.768555,778.965149 1561.237183,756.657349 1560.714111,734.349670 
	C1560.687866,733.227112 1560.308105,732.112854 1560.093018,730.994751 
	C1560.025024,724.337952 1559.957031,717.681091 1560.015869,710.152588 
	C1560.292236,707.684326 1560.441650,706.087708 1560.619385,704.190796 
	C1725.250366,704.190796 1889.532349,704.190796 2053.814453,704.190796 
	C2053.814453,706.649780 2053.814453,709.108765 2053.814453,712.171753 
	C2051.494385,712.171753 2049.385742,712.171753 2047.276978,712.171753 
	C1898.829468,712.171753 1750.381836,712.170410 1601.934326,712.175232 
	C1593.437622,712.175476 1584.940796,712.218750 1576.444092,712.255859 
	C1570.501953,712.281799 1569.152100,713.697144 1569.155884,719.567688 
	C1569.180176,756.221313 1569.182739,792.874939 1569.180908,829.528564 
	C1569.180908,830.690674 1569.055664,831.852844 1568.991943,833.491455 
	C1568.995117,833.967896 1568.960327,833.888184 1568.960327,833.888184 
z"/>
<path fill="#AAAAAA" opacity="1.000000" stroke="none" 
	d="
M1452.932373,703.539551 
	C1451.070312,703.991699 1449.078247,704.161194 1447.086060,704.161316 
	C1182.922241,704.174683 918.758484,704.177429 654.594727,704.152832 
	C651.945496,704.152588 649.296204,703.782959 646.322144,703.328552 
	C647.590515,702.816406 649.183838,702.338257 650.777100,702.338135 
	C915.866638,702.310486 1180.956177,702.315125 1446.045654,702.357910 
	C1448.297852,702.358276 1450.549927,702.892700 1452.932373,703.539551 
z"/>
<path fill="#AAAAAA" opacity="1.000000" stroke="none" 
	d="
M2053.776367,703.801636 
	C1889.532349,704.190796 1725.250366,704.190796 1560.619385,704.190796 
	C1560.441650,706.087708 1560.292236,707.684326 1559.977539,709.692139 
	C1559.174927,707.773132 1558.537598,705.442871 1557.683960,702.322083 
	C1560.668579,702.322083 1562.457153,702.322144 1564.245728,702.322144 
	C1725.379639,702.322327 1886.513428,702.318481 2047.647339,702.367859 
	C2049.677734,702.368469 2051.708008,703.049133 2053.776367,703.801636 
z"/>
<path fill="#AAAAAA" opacity="1.000000" stroke="none" 
	d="
M627.233276,681.687073 
	C626.699768,679.909302 626.198120,677.816956 626.195374,675.723999 
	C626.147644,639.166809 626.164185,602.609497 626.153259,566.052246 
	C626.152710,564.061646 626.035522,562.071045 625.896667,559.628540 
	C626.473938,560.259094 627.696838,561.340820 627.698242,562.424133 
	C627.749207,601.913696 627.686768,641.403320 627.633789,680.893005 
	C627.633606,681.052856 627.544800,681.212524 627.233276,681.687073 
z"/>
<path fill="#AAAAAA" opacity="1.000000" stroke="none" 
	d="
M1524.776855,774.891602 
	C1524.183594,774.943054 1523.479858,774.770813 1523.042969,774.332581 
	C1503.640503,754.868835 1484.261475,735.381653 1464.821167,715.564209 
	C1465.879883,715.843506 1467.214722,716.237061 1468.081909,717.100281 
	C1486.583252,735.521057 1505.035889,753.990967 1523.474854,772.474182 
	C1524.038574,773.039185 1524.357666,773.848450 1524.776855,774.891602 
z"/>
<path fill="#AAAAAA" opacity="1.000000" stroke="none" 
	d="
M1559.826416,731.308594 
	C1560.308105,732.112854 1560.687866,733.227112 1560.714111,734.349670 
	C1561.237183,756.657349 1561.768555,778.965149 1562.114624,801.275757 
	C1562.141602,803.017090 1561.134521,805.972717 1560.046143,806.263794 
	C1558.228271,806.750122 1555.956421,805.539307 1553.777588,804.690674 
	C1558.626831,804.662231 1560.373169,802.407227 1560.251465,797.443665 
	C1559.754150,777.157349 1559.547852,756.863770 1559.265625,736.572449 
	C1559.242676,734.924133 1559.456299,733.272583 1559.826416,731.308594 
z"/>
<path fill="#AAAAAA" opacity="1.000000" stroke="none" 
	d="
M644.059937,702.400635 
	C637.654297,701.333191 633.047607,697.497803 629.953674,691.375305 
	C634.636597,694.707703 639.301636,698.393860 644.059937,702.400635 
z"/>
<path fill="#AAAAAA" opacity="1.000000" stroke="none" 
	d="
M1549.774170,799.892578 
	C1547.132935,797.793762 1544.504395,795.346863 1541.817993,792.567261 
	C1544.435791,794.671143 1547.111450,797.107849 1549.774170,799.892578 
z"/>
<path fill="#AAAAAA" opacity="1.000000" stroke="none" 
	d="
M1462.778809,712.888184 
	C1461.143311,711.796082 1459.520142,710.355469 1457.840820,708.589844 
	C1459.453491,709.689819 1461.122314,711.114746 1462.778809,712.888184 
z"/>
<path fill="#AAAAAA" opacity="1.000000" stroke="none" 
	d="
M629.415161,689.126892 
	C628.505554,688.144714 627.769348,686.830627 627.139709,685.189697 
	C628.026978,686.173523 628.807739,687.484192 629.415161,689.126892 
z"/>
<path fill="#AAAAAA" opacity="1.000000" stroke="none" 
	d="
M1457.753906,707.865173 
	C1456.772461,707.447021 1455.810669,706.679810 1454.783691,705.600769 
	C1455.736816,706.031311 1456.755249,706.773743 1457.753906,707.865173 
z"/>
<path fill="#AAAAAA" opacity="1.000000" stroke="none" 
	d="
M1539.774170,789.890137 
	C1538.795898,789.451416 1537.828247,788.663757 1536.808716,787.556641 
	C1537.766235,788.005188 1538.775513,788.773132 1539.774170,789.890137 
z"/>
<path fill="#AAAAAA" opacity="1.000000" stroke="none" 
	d="
M1534.770752,784.893311 
	C1533.791870,784.456177 1532.824219,783.669617 1531.803467,782.564331 
	C1532.760864,783.011780 1533.771362,783.777832 1534.770752,784.893311 
z"/>
<path fill="#AAAAAA" opacity="1.000000" stroke="none" 
	d="
M1529.767822,779.899780 
	C1528.788452,779.456848 1527.824951,778.664673 1526.810791,777.553223 
	C1527.767944,778.006104 1528.775757,778.778320 1529.767822,779.899780 
z"/>
<path fill="#AAAAAA" opacity="1.000000" stroke="none" 
	d="
M1568.953491,833.956055 
	C1569.124023,834.048035 1569.336060,834.151978 1569.548218,834.255920 
	C1569.371460,834.262939 1569.194702,834.270020 1568.989136,834.082642 
	C1568.960327,833.888184 1568.995117,833.967896 1568.953491,833.956055 
z"/>
</svg>